<svg xmlns="http://www.w3.org/2000/svg" viewBox="0 0 960 600" fill="none">
  <g opacity="0.5" stroke="white" stroke-width="3" fill="white">
    <!-- Simplified USA outline -->
    <path d="M45,220 L65,210 L85,215 L105,205 L125,210 L145,205 L165,215 L185,210 L205,220 L225,215 L245,225 L265,220 L285,230 L305,225 L325,235 L345,230 L365,240 L385,235 L405,245 L425,240 L445,250 L465,245 L485,255 L505,250 L525,260 L545,255 L565,265 L585,260 L605,270 L625,265 L645,275 L665,270 L685,280 L705,285 L725,280 L745,290 L765,285 L785,295 L805,300 L825,305 L845,310 L865,305 L885,315 L905,310 L925,320 L925,380 L905,385 L885,390 L865,385 L845,395 L825,390 L805,400 L785,395 L765,405 L745,400 L725,410 L705,405 L685,415 L665,410 L645,420 L625,415 L605,425 L585,420 L565,430 L545,425 L525,435 L505,430 L485,440 L465,435 L445,445 L425,440 L405,450 L385,445 L365,455 L345,450 L325,460 L305,455 L285,465 L265,460 L245,470 L225,465 L205,475 L185,470 L165,480 L145,475 L125,485 L105,480 L85,490 L65,485 L45,495 L45,220 Z"/>
    <!-- Alaska -->
    <ellipse cx="120" cy="520" rx="40" ry="25"/>
    <!-- Hawaii -->
    <circle cx="260" cy="540" r="8"/>
    <circle cx="280" cy="545" r="6"/>
    <circle cx="300" cy="542" r="5"/>
  </g>
</svg>
